<svg xmlns="http://www.w3.org/2000/svg" width="940" height="440" viewBox="0 0 940 440" role="img" aria-labelledby="title desc">
  <title id="title">Two environments, two deployment paths</title>
  <desc id="desc">A user push starts an automatic CI/CD deployment to Development. A release owner separately starts a manual production release that promotes the tested version to Production.</desc>
  <defs>
    <filter id="shadow" x="-20%" y="-20%" width="140%" height="150%">
      <feDropShadow dx="0" dy="4" stdDeviation="5" flood-color="#0f172a" flood-opacity="0.08"/>
    </filter>
    <marker id="arrow-purple" viewBox="0 0 10 10" refX="9" refY="5" markerWidth="9" markerHeight="9" orient="auto"><path d="M0 0 10 5 0 10Z" fill="#7c3aed"/></marker>
    <marker id="arrow-blue" viewBox="0 0 10 10" refX="9" refY="5" markerWidth="9" markerHeight="9" orient="auto"><path d="M0 0 10 5 0 10Z" fill="#2563eb"/></marker>
    <marker id="arrow-amber" viewBox="0 0 10 10" refX="9" refY="5" markerWidth="9" markerHeight="9" orient="auto"><path d="M0 0 10 5 0 10Z" fill="#c2410c"/></marker>
    <marker id="arrow-green" viewBox="0 0 10 10" refX="9" refY="5" markerWidth="9" markerHeight="9" orient="auto"><path d="M0 0 10 5 0 10Z" fill="#15803d"/></marker>
    <marker id="arrow-red" viewBox="0 0 10 10" refX="9" refY="5" markerWidth="9" markerHeight="9" orient="auto"><path d="M0 0 10 5 0 10Z" fill="#dc2626"/></marker>
    <marker id="arrow-gray" viewBox="0 0 10 10" refX="9" refY="5" markerWidth="9" markerHeight="9" orient="auto"><path d="M0 0 10 5 0 10Z" fill="#64748b"/></marker>
    <symbol id="icon-environment" viewBox="0 0 24 24">
        <rect x="3" y="3" width="18" height="8" rx="2" fill="none" stroke="currentColor" stroke-width="1.8"/>
        <rect x="3" y="13" width="18" height="8" rx="2" fill="none" stroke="currentColor" stroke-width="1.8"/>
        <path d="M7 7h7M7 17h7" fill="none" stroke="currentColor" stroke-width="1.8" stroke-linecap="round"/>
        <circle cx="17" cy="7" r="1" fill="currentColor"/><circle cx="17" cy="17" r="1" fill="currentColor"/>
      </symbol>
    <symbol id="icon-user" viewBox="0 0 24 24">
        <circle cx="12" cy="8" r="4" fill="none" stroke="currentColor" stroke-width="2"/>
        <path d="M4 22c.6-5 3.3-7 8-7s7.4 2 8 7" fill="none" stroke="currentColor" stroke-width="2" stroke-linecap="round"/>
      </symbol>
    <symbol id="icon-workflow" viewBox="0 0 24 24">
        <path d="M4 11A8.5 8.5 0 0 1 19.5 8.5" fill="none" stroke="currentColor" stroke-width="2" stroke-linecap="round"/>
        <path d="M19.5 4.5v4h-4" fill="none" stroke="currentColor" stroke-width="2" stroke-linecap="round" stroke-linejoin="round"/>
        <path d="M20 13A8.5 8.5 0 0 1 4.5 15.5" fill="none" stroke="currentColor" stroke-width="2" stroke-linecap="round"/>
        <path d="M4.5 19.5v-4h4" fill="none" stroke="currentColor" stroke-width="2" stroke-linecap="round" stroke-linejoin="round"/>
      </symbol>
    <style>
      text { font-family: system-ui, -apple-system, BlinkMacSystemFont, "Segoe UI", sans-serif; fill: #172033; }
      symbol [stroke] { vector-effect: non-scaling-stroke; }
      .node rect { stroke-width: 2; }
      .node-boundary rect { stroke-width: 2; stroke-dasharray: 8 8; }
      .boundary-title { font-size: 16px; font-weight: 750; text-anchor: start; }
      .node-title { font-size: 20px; font-weight: 750; text-anchor: middle; }
      .node-title.icon-copy { text-anchor: start; }
      .node-subtitle { font-size: 16px; font-weight: 500; fill: #475569; text-anchor: middle; }
      .eyebrow { font-size: 13px; font-weight: 750; letter-spacing: 1px; fill: #475569; text-anchor: middle; }
      .mention-icon { font-size: 27px; font-weight: 750; text-anchor: middle; }
      .standalone-mention { font-size: 52px; font-weight: 750; text-anchor: middle; }
      .icon-node-title { font-size: 16px; font-weight: 750; text-anchor: middle; }
      .edge { fill: none; stroke-width: 2.5; stroke-linecap: round; stroke-linejoin: round; }
      .edge-label rect { stroke-width: 2; }
      .edge-label text { font-size: 14px; font-weight: 750; text-anchor: middle; dominant-baseline: central; }
      .divider { stroke: #cbd5e1; stroke-width: 2; stroke-dasharray: 6 8; stroke-linecap: round; }
      .center-annotation { fill: #f1f5f9; stroke: none; }
      .center-title { font-weight: 800; letter-spacing: 0.08em; fill: #334155; text-anchor: middle; }
      .center-detail { font-weight: 600; fill: #475569; text-anchor: middle; }
    </style>
  </defs>
  <rect width="940" height="440" fill="#ffffff"/>

  <g class="node-boundary node-purple" transform="translate(330 30)">
    <rect width="280" height="380" rx="22" fill="none" stroke="#7c3aed"/>
    <text class="boundary-title" x="20" y="31">CI/CD</text>
  </g>
  <path class="edge-boundary-halo" d="M151 120L360 120" fill="none" stroke="#ffffff" stroke-width="10" stroke-linecap="round" stroke-linejoin="round"/>
  <path class="edge" d="M151 120L360 120" stroke="#2563eb" marker-end="url(#arrow-blue)"/>
  <g class="edge-label" transform="translate(255.5 120)">
    <rect x="-31.21" y="-16" width="62.41" height="32" rx="16.0" fill="#ffffff" stroke="#2563eb"/>
    <text fill="#2563eb">Push</text>
  </g>
  <path class="edge-boundary-halo" d="M580 120L700 120" fill="none" stroke="#ffffff" stroke-width="10" stroke-linecap="round" stroke-linejoin="round"/>
  <path class="edge" d="M580 120L700 120" stroke="#7c3aed" marker-end="url(#arrow-purple)"/>
  <path class="edge-boundary-halo" d="M810 170V220H470V270" fill="none" stroke="#ffffff" stroke-width="10" stroke-linecap="round" stroke-linejoin="round"/>
  <path class="edge" d="M810 170V220H470V270" stroke="#2563eb" stroke-dasharray="8 8" marker-end="url(#arrow-blue)"/>
  <path class="edge-boundary-halo" d="M151 320L360 320" fill="none" stroke="#ffffff" stroke-width="10" stroke-linecap="round" stroke-linejoin="round"/>
  <path class="edge" d="M151 320L360 320" stroke="#15803d" stroke-dasharray="8 8" marker-end="url(#arrow-green)"/>
  <g class="edge-label" transform="translate(255.5 320)">
    <rect x="-70.52" y="-16" width="141.04" height="32" rx="16.0" fill="#ffffff" stroke="#15803d"/>
    <text fill="#15803d">Manual trigger</text>
  </g>
  <path class="edge-boundary-halo" d="M580 320L700 320" fill="none" stroke="#ffffff" stroke-width="10" stroke-linecap="round" stroke-linejoin="round"/>
  <path class="edge" d="M580 320L700 320" stroke="#15803d" marker-end="url(#arrow-green)"/>

  <g class="node-icon-only node-blue" transform="translate(102 92)">
    <use href="#icon-user" x="0" y="0" width="56" height="56" color="#2563eb"/>
    <text class="icon-node-title" x="28" y="81">User</text>
  </g>
  <g class="node node-purple" transform="translate(360 70)" filter="url(#shadow)">
    <rect width="220" height="100" rx="18" fill="#f5f3ff" stroke="#7c3aed"/>
    <use href="#icon-workflow" x="16" y="20" width="34" height="34" color="#7c3aed"/>
    <text class="node-title icon-copy" x="62" y="43.48" font-size="18">Deploy</text>
    <text class="node-subtitle" x="110" y="75" font-size="16">Automatic on push</text>
  </g>
  <g class="node node-blue" transform="translate(700 70)" filter="url(#shadow)">
    <rect width="220" height="100" rx="18" fill="#eff6ff" stroke="#2563eb"/>
    <use href="#icon-environment" x="16" y="9" width="34" height="34" color="#2563eb"/>
    <text class="node-title icon-copy" x="62" y="32.48" font-size="18">Development</text>
    <text class="node-subtitle" x="110" y="64" font-size="16">Validate latest</text>
    <text class="node-subtitle" x="110" y="86" font-size="16">changes</text>
  </g>
  <g class="node-icon-only node-blue" transform="translate(102 292)">
    <use href="#icon-user" x="0" y="0" width="56" height="56" color="#2563eb"/>
    <text class="icon-node-title" x="28" y="81">Release owner</text>
  </g>
  <g class="node node-purple" transform="translate(360 270)" filter="url(#shadow)">
    <rect width="220" height="100" rx="18" fill="#f5f3ff" stroke="#7c3aed"/>
    <use href="#icon-workflow" x="16" y="20" width="34" height="34" color="#7c3aed"/>
    <text class="node-title icon-copy" x="62" y="43.48" font-size="18">Prod release</text>
    <text class="node-subtitle" x="110" y="75" font-size="16">Promote tested version</text>
  </g>
  <g class="node node-green" transform="translate(700 270)" filter="url(#shadow)">
    <rect width="220" height="100" rx="18" fill="#ecfdf5" stroke="#15803d"/>
    <use href="#icon-environment" x="16" y="20" width="34" height="34" color="#15803d"/>
    <text class="node-title icon-copy" x="62" y="43.48" font-size="18">Production</text>
    <text class="node-subtitle" x="110" y="75" font-size="16">Serve real users</text>
  </g>
</svg>
